<svg width="97" height="40" viewBox="0 0 97 40" fill="none" xmlns="http://www.w3.org/2000/svg">
<path d="M15.4169 19.9116C15.4645 10.9801 22.7176 3.75404 31.6593 3.75004C30.4214 2.86181 29.0786 2.11264 27.6537 1.52242C23.5861 -0.162417 19.0763 -0.458008 14.8236 0.68149C10.5709 1.82099 6.81312 4.33189 4.13293 7.82477C1.45275 11.3177 3.84895e-07 15.5973 0 20C-3.84895e-07 24.4027 1.45275 28.6823 4.13293 32.1752C6.81311 35.6681 10.5709 38.179 14.8236 39.3185C19.0763 40.458 23.5861 40.1624 27.6537 38.4776C29.0786 37.8874 30.4213 37.1382 31.6592 36.25C26.3601 36.2476 21.6541 33.7088 18.6894 29.7817C12.2675 30.0191 6.66666 29.5913 6.66666 26.6667C6.66666 24.2542 10.4777 21.994 15.4169 19.9116Z" fill="#121926"/>
<path d="M50.3723 34.0859C55.2848 34.0859 58.9771 30.2972 58.9771 25.7058C58.9771 20.7613 55.5737 17.2937 50.6292 17.2937C49.0238 17.2937 47.5148 17.8716 46.3268 18.7706V10.4227H41.7675V25.7058C41.7675 30.5219 45.4278 34.0859 50.3723 34.0859ZM50.3723 29.7835C48.0285 29.7835 46.3268 27.9534 46.3268 25.7058C46.3268 23.4583 48.0285 21.5961 50.3723 21.5961C52.7162 21.5961 54.4179 23.4583 54.4179 25.7058C54.4179 27.9534 52.7162 29.7835 50.3723 29.7835Z" fill="#121926"/>
<path d="M63.6603 15.3672C65.2014 15.3672 66.4536 14.1151 66.4536 12.5418C66.4536 11.0006 65.2014 9.71634 63.6603 9.71634C62.1191 9.71634 60.8348 11.0006 60.8348 12.5418C60.8348 14.1151 62.1191 15.3672 63.6603 15.3672ZM61.3807 17.7432V33.6364H65.9399V17.7432H61.3807Z" fill="#121926"/>
<path d="M73.6708 33.6364V24.6784C73.6708 22.7841 74.7624 21.6282 76.5604 21.6282C77.3952 21.6282 78.3263 21.8529 79.0969 22.3025V17.8716C78.2942 17.5184 77.1705 17.3258 76.143 17.3258C71.4232 17.3258 69.1115 20.4402 69.1115 24.5179V33.6364H73.6708Z" fill="#121926"/>
<path d="M87.8577 34.0859C92.8344 34.0859 96.4946 30.5219 96.4946 25.7058V10.4227H91.9354L91.9033 18.8027C90.7474 17.8716 89.2062 17.2937 87.6009 17.2937C82.6563 17.2937 79.2529 20.7613 79.2529 25.7058C79.2529 30.2972 82.9774 34.0859 87.8577 34.0859ZM87.8577 29.7835C85.5139 29.7835 83.8122 27.9534 83.8122 25.7058C83.8122 23.4583 85.5139 21.5961 87.8577 21.5961C90.2016 21.5961 91.9354 23.4583 91.9354 25.7058C91.9354 27.9534 90.2016 29.7835 87.8577 29.7835Z" fill="#121926"/>
</svg>
